<?xml version="1.0" encoding="UTF-8"?>
<svg width="151px" height="151px" viewBox="0 0 151 151" version="1.1" xmlns="http://www.w3.org/2000/svg" xmlns:xlink="http://www.w3.org/1999/xlink">
    <title>lrs</title>
    <g id="Page-1" stroke="none" stroke-width="1" fill="none" fill-rule="evenodd">
        <g id="lrs" fill-rule="nonzero">
            <rect id="Rectangle" fill="#1D1D1B" x="0" y="0" width="150.1" height="150.1" rx="75"></rect>
            <g id="Group" transform="translate(14.2, 39.8)" fill="#FFFFFF">
                <path d="M6.4,11.5 L-8.8817842e-15,11.5 L-8.8817842e-15,0 L22.3,0 L22.3,47.3 C22.3,51.8 23.1,53.4 26.7,53.4 C30.3,53.4 28.6,53.4 28.6,53.4 L28.6,66 C28.6,66 26.4,66.3 23.8,66.3 C15.3,66.3 6.3,64.3 6.3,48.4 L6.3,11.6 L6.4,11.5 Z" id="Path"></path>
                <path d="M35,54.2 L41.4,54.2 L41.4,31.9 C41.4,30.6 40.7,29.9 39.4,29.9 L35,29.9 L35,18.4 L50,18.4 C54.3,18.4 56.7,20.1 56.7,24.5 L56.7,27 C56.7,28.5 56.5,29.4 56.5,29.4 L56.7,29.4 C58.7,23 64.7,17.6 71.8,17.6 C78.9,17.6 73.6,17.8 73.6,17.8 L73.6,33.4 C73.6,33.4 72.3,33.1 70.4,33.1 C61.6,33.1 57.3,38.7 57.3,47.3 L57.3,54.2 L63.7,54.2 L63.7,65.7 L34.9,65.7 L34.9,54.2 L35,54.2 Z" id="Path"></path>
                <path d="M77.7,49 L91,49 L91,51.4 C91,53.5 93.3,54.8 97.9,54.8 C102.5,54.8 103.7,53.9 103.7,52 C103.7,49.1 100.5,48.7 94.4,46.7 C87.5,44.4 79.3,41.1 79.3,31.5 C79.3,21.9 90.5,17.3 99.6,17.3 C108.7,17.3 117.7,19.9 117.7,27.6 L117.7,34 L104.4,34 L104.4,31.9 C104.4,30.4 103,29.3 99.6,29.3 C96.2,29.3 95.1,29.9 95.1,31.7 C95.1,34.6 98.9,35.7 103.4,36.8 C110.6,38.7 119.5,41.7 119.5,51.5 C119.5,61.3 109.1,66.8 97.9,66.8 C86.7,66.8 77.7,63.2 77.7,55.3 L77.7,49 L77.7,49 Z" id="Path"></path>
            </g>
        </g>
    </g>
</svg>